<svg width="64" height="64" viewBox="0 0 64 64" fill="none" xmlns="http://www.w3.org/2000/svg">
<rect width="64" height="64" rx="32" fill="#0F0D13"/>
<path fill-rule="evenodd" clip-rule="evenodd" d="M46.903 18.7129C47.3101 16.3534 47.9074 14.8697 48.5691 14.8668H48.5705C49.8044 14.8711 50.8046 20.0167 50.8046 26.3697C50.8046 32.7226 49.8029 37.8725 48.5677 37.8725C48.0613 37.8725 47.5941 36.9981 47.2178 35.5328C46.6232 40.8966 45.3894 44.584 43.9611 44.584C42.856 44.584 41.8641 42.3691 41.1983 38.8758C40.7436 45.5193 39.5993 50.2327 38.2619 50.2327C37.4226 50.2327 36.6573 48.3649 36.0908 45.3238C35.4096 51.6016 33.8358 56.0004 32.0004 56.0004C30.165 56.0004 28.5885 51.603 27.91 45.3238C27.3476 48.3649 26.5824 50.2327 25.7388 50.2327C24.4015 50.2327 23.26 45.5193 22.8025 38.8758C22.1367 42.3691 21.1477 44.584 20.0397 44.584C18.6128 44.584 17.3776 40.8981 16.783 35.5328C16.4095 37.0024 15.9395 37.8725 15.4331 37.8725C14.1978 37.8725 13.1962 32.7226 13.1962 26.3697C13.1962 20.0167 14.1978 14.8668 15.4331 14.8668C16.0962 14.8668 16.6893 16.3548 17.1006 18.7129C17.7595 14.6444 18.8297 12 20.0397 12C21.4764 12 22.7214 15.7398 23.3104 21.1702C23.8867 17.2179 24.761 14.6982 25.7403 14.6982C27.1126 14.6982 28.2793 19.6539 28.7116 26.5667C29.5243 23.0224 30.7008 20.7989 32.0032 20.7989C33.3056 20.7989 34.4821 23.0238 35.2934 26.5667C35.7271 19.6539 36.8924 14.6982 38.2647 14.6982C39.2425 14.6982 40.1155 17.2179 40.6946 21.1702C41.2821 15.7398 42.5272 12 43.9639 12C45.1698 12 46.2441 14.6458 46.903 18.7129ZM9.99988 25.2383C9.99988 22.3984 10.5678 20.0955 11.2687 20.0955C11.9695 20.0955 12.5375 22.3984 12.5375 25.2383C12.5375 28.0782 11.9695 30.3811 11.2687 30.3811C10.5678 30.3811 9.99988 28.0782 9.99988 25.2383ZM51.4624 25.2383C51.4624 22.3984 52.0302 20.0955 52.7311 20.0955C53.432 20.0955 54 22.3984 54 25.2383C54 28.0782 53.432 30.3811 52.7311 30.3811C52.0302 30.3811 51.4624 28.0782 51.4624 25.2383Z" fill="#A238FF"/>
</svg>
