<svg width="101" height="100" xmlns="http://www.w3.org/2000/svg">
 <defs>
  <clipPath id="clip0_2_16">
   <rect id="svg_1" x="0.5" y="0" fill="white" height="100" width="100"/>
  </clipPath>
 </defs>
 <g>
  <title>background</title>
  <rect fill="none" id="canvas_background" height="602" width="802" y="-1" x="-1"/>
 </g>
 <g>
  <title>Layer 1</title>
  <g id="svg_2" clip-path="url(#clip0_2_16)">
   <path id="svg_3" fill="#ffffff" d="m7.52944,7.02944c-7.02944,7.02946 -7.02944,18.34316 -7.02944,40.97056l0,4c0,22.6274 0,33.9411 7.02944,40.9706c7.02946,7.0294 18.34316,7.0294 40.97056,7.0294l4,0c22.6274,0 33.9411,0 40.9706,-7.0294c7.0294,-7.0295 7.0294,-18.3432 7.0294,-40.9706l0,-4c0,-22.6274 0,-33.9411 -7.0294,-40.97056c-7.0295,-7.02944 -18.3432,-7.02944 -40.9706,-7.02944l-4,0c-22.6274,0 -33.9411,0 -40.97056,7.02944zm9.84576,23.38746c0.5416,26 13.5415,41.6249 36.3332,41.6249l1.2919,0l0,-14.875c8.375,0.8333 14.7079,6.9584 17.2495,14.875l11.8337,0c-3.25,-11.8333 -11.7921,-18.375 -17.1254,-20.875c5.3333,-3.0833 12.8334,-10.5833 14.625,-20.7499l-10.7503,0c-2.3333,8.25 -9.2492,15.7499 -15.8325,16.4582l0,-16.4582l-10.7504,0l0,28.8332c-6.6666,-1.6666 -15.0831,-9.7499 -15.4581,-28.8332l-11.4166,0z" clip-rule="evenodd" fill-rule="evenodd"/>
  </g>
 </g>
</svg>