<svg width="64" height="64" viewBox="0 0 64 64" fill="none" xmlns="http://www.w3.org/2000/svg">
<g clip-path="url(#clip0_3560_9554)">
<path d="M64 32C64 14.3269 49.6731 0 32 0C14.3269 0 0 14.3269 0 32C0 49.6731 14.3269 64 32 64C49.6731 64 64 49.6731 64 32Z" fill="#0D0D0D"/>
<path fill-rule="evenodd" clip-rule="evenodd" d="M28.79 47.1629C28.8952 47.6712 28.9478 47.9254 28.7888 48.1039C28.6298 48.2824 28.3646 48.2588 27.8343 48.2116C24.8654 47.9472 23.2051 47.403 21.9064 46.8651C19.7462 45.9703 18.03 44.254 17.1352 42.0938C16.5972 40.7951 16.0529 39.1346 15.7885 36.1657C15.7412 35.6354 15.7176 35.3702 15.8961 35.2112C16.0747 35.0522 16.3288 35.1048 16.8372 35.21C22.83 36.4503 27.5497 41.1701 28.79 47.1629ZM34.5285 48.3209C34.116 48.3402 33.9098 48.3498 33.7682 48.2324C33.6265 48.115 33.5962 47.9006 33.5355 47.4719C32.291 38.6713 25.3287 31.709 16.5281 30.4645C16.0994 30.4039 15.885 30.3735 15.7676 30.2318C15.6502 30.0902 15.6598 29.884 15.6791 29.4715C15.7597 27.7443 15.923 26.3871 16.133 25.2803C16.202 24.9162 16.2366 24.7341 16.3806 24.6237C16.5246 24.5133 16.7111 24.5273 17.0841 24.5553C29.0196 25.4526 38.5475 34.9805 39.4447 46.916C39.4727 47.2891 39.4867 47.4756 39.3763 47.6196C39.2659 47.7636 39.0838 47.7981 38.7197 47.8672C37.6129 48.0771 36.2556 48.2404 34.5285 48.3209ZM45.2276 44.668C44.7582 45.1816 44.5234 45.4384 44.2376 45.353C43.9518 45.2676 43.8906 44.8877 43.7682 44.1281C41.7941 31.8789 32.1214 22.2061 19.8724 20.2319C19.1127 20.1095 18.7328 20.0482 18.6474 19.7624C18.562 19.4766 18.8188 19.2419 19.3325 18.7724C20.0818 18.0876 20.9507 17.5308 21.9064 17.1349C23.7156 16.3856 26.2268 15.6239 32 15.6239C37.7733 15.6239 40.2849 16.3856 42.094 17.1349C44.2542 18.0297 45.9705 19.746 46.8653 21.9062C47.6146 23.7152 48.3761 26.2265 48.3761 32C48.3761 37.7735 47.6146 40.2848 46.8653 42.0938C46.4694 43.0497 45.9126 43.9186 45.2276 44.668ZM11 32C11 25.7377 11.8402 22.6066 12.8633 20.1367C14.2274 16.8436 16.8438 14.2271 20.137 12.8631C22.6069 11.84 25.7377 11 32 11C38.2623 11 41.3936 11.84 43.8635 12.8631C47.1567 14.2271 49.7731 16.8436 51.1372 20.1367C52.1602 22.6066 53 25.7377 53 32C53 38.2623 52.1602 41.3934 51.1372 43.8633C49.7731 47.1564 47.1567 49.7729 43.8635 51.1369C41.3936 52.16 38.2623 53 32 53C25.7377 53 22.6069 52.16 20.137 51.1369C16.8438 49.7729 14.2274 47.1564 12.8633 43.8633C11.8402 41.3934 11 38.2623 11 32Z" fill="white"/>
</g>
<defs>
<clipPath id="clip0_3560_9554">
<rect width="64" height="64" fill="white"/>
</clipPath>
</defs>
</svg>
